<?xml version="1.0" encoding="utf-8"?>
<!-- Generator: Adobe Illustrator 27.9.0, SVG Export Plug-In . SVG Version: 6.00 Build 0)  -->
<svg version="1.1" id="Layer_1" xmlns="http://www.w3.org/2000/svg" xmlns:xlink="http://www.w3.org/1999/xlink" x="0px" y="0px"
	 viewBox="0 0 131.4 83.1" style="enable-background:new 0 0 131.4 83.1;" xml:space="preserve">
<style type="text/css">
	.st0{clip-path:url(#SVGID_00000057853000818304451700000003274555472819149488_);fill:#246EA9;}
	.st1{clip-path:url(#SVGID_00000095315406096542490280000005717464608854571653_);fill:#FFFFFE;}
	.st2{clip-path:url(#SVGID_00000081635833843137245610000011764970637091485586_);fill:#FFFFFE;}
	.st3{fill:#246EA9;}
</style>
<g>
	<g>
		<g>
			<g>
				<g>
					<defs>
						<path id="SVGID_1_" d="M1.7,7.6c0-3.3,2.7-6,6-6h116c3.3,0,6,2.7,6,6v68c0,3.3-2.7,6-6,6H7.7c-3.3,0-6-2.7-6-6
							C1.7,75.6,1.7,7.6,1.7,7.6z"/>
					</defs>
					<clipPath id="SVGID_00000162340212437342351330000017458956478805125286_">
						<use xlink:href="#SVGID_1_"  style="overflow:visible;"/>
					</clipPath>
					<path style="clip-path:url(#SVGID_00000162340212437342351330000017458956478805125286_);fill:#246EA9;" d="M1.7,7.6
						c0-3.3,2.7-6,6-6h116c3.3,0,6,2.7,6,6v68c0,3.3-2.7,6-6,6H7.7c-3.3,0-6-2.7-6-6C1.7,75.6,1.7,7.6,1.7,7.6z"/>
				</g>
			</g>
		</g>
	</g>
	<g>
		<g>
			<g>
				<defs>
					<path id="SVGID_00000170990912032291472080000006069074116342648971_" d="M128.3,50.9h-6.4c-0.6,0-1.1,0-1.4,0.3
						c-0.4,0.2-0.5,0.6-0.5,1.1c0,0.6,0.3,0.9,0.8,1.1c0.4,0.1,0.8,0.2,1.3,0.2h1.9c1.9,0.1,3.2,0.4,4,1.2c0.1,0.1,0.2,0.2,0.3,0.4
						V50.9L128.3,50.9z M128.3,60.6c-0.9,1.3-2.5,1.9-4.8,1.9h-6.8v-3.2h6.8c0.7,0,1.1-0.1,1.4-0.4c0.2-0.2,0.4-0.5,0.4-1
						c0-0.4-0.2-0.8-0.4-1c-0.3-0.2-0.6-0.3-1.2-0.3c-3.3-0.1-7.4,0.1-7.4-4.6c0-2.1,1.4-4.4,5-4.4h7v-2.9h-6.5
						c-2,0-3.4,0.5-4.4,1.2v-1.2h-9.6c-1.5,0-3.3,0.4-4.2,1.2v-1.2H86.4v1.2c-1.4-1-3.7-1.2-4.7-1.2H70.3v1.2c-1.1-1-3.5-1.2-5-1.2
						H52.7L49.8,48l-2.7-3.1h-19v20.5h18.6l3-3.2l2.8,3.2H64v-4.8h1.1c1.5,0,3.3,0,4.9-0.7v5.5h9.5v-5.3H80c0.6,0,0.6,0,0.6,0.6v4.7
						h28.7c1.8,0,3.7-0.5,4.8-1.3v1.3h9.1c1.9,0,3.7-0.3,5.2-0.9v-3.9H128.3z M114.2,54.7c0.7,0.7,1.1,1.6,1.1,3.1
						c0,3.2-2,4.6-5.5,4.6h-6.9v-3.1h6.8c0.7,0,1.1-0.1,1.4-0.4c0.2-0.2,0.4-0.5,0.4-1c0-0.4-0.2-0.8-0.4-1
						c-0.3-0.2-0.6-0.3-1.3-0.3c-3.3-0.1-7.4,0.1-7.4-4.6c0-2.1,1.3-4.4,5-4.4h7v3.1H108c-0.7,0-1.1,0-1.4,0.3
						c-0.4,0.2-0.5,0.6-0.5,1.1c0,0.6,0.3,0.9,0.8,1.1c0.4,0.1,0.8,0.2,1.4,0.2h1.9C112.2,53.6,113.4,53.9,114.2,54.7z M82.5,53.8
						c-0.5,0.3-1.1,0.3-1.7,0.3h-4.3v-3.3h4.3c0.6,0,1.3,0,1.7,0.3c0.5,0.2,0.7,0.7,0.7,1.3C83.3,53,83,53.5,82.5,53.8z M84.7,55.6
						c0.8,0.3,1.4,0.8,1.7,1.2c0.5,0.7,0.6,1.4,0.6,2.7v2.9h-3.5v-1.8c0-0.9,0.1-2.2-0.6-2.9c-0.5-0.5-1.3-0.7-2.6-0.7h-3.8v5.4H73
						V47.8h8.1c1.8,0,3.1,0.1,4.2,0.7c1.1,0.7,1.8,1.6,1.8,3.3C87.1,54.1,85.6,55.3,84.7,55.6z M89.1,47.8h11.7v3.1h-8.2v2.7h8v3h-8
						v2.9h8.2v3.1H89.1V47.8z M65.4,54.6h-4.6v-3.7h4.6c1.3,0,2.1,0.5,2.1,1.8C67.6,53.9,66.7,54.6,65.4,54.6z M57.3,61.2l-5.4-6
						l5.4-5.8V61.2z M43.4,59.4h-8.6v-2.9h7.7v-3h-7.7v-2.7h8.8l3.8,4.3L43.4,59.4z M71.3,52.6c0,4.1-3,4.9-6.1,4.9h-4.4v4.9H54
						l-4.3-4.9l-4.5,4.9H31.3V47.8h14.1l4.3,4.8l4.5-4.8h11.2C68.2,47.8,71.3,48.6,71.3,52.6z"/>
				</defs>
				<clipPath id="SVGID_00000175291381310153236160000000504301147653224348_">
					<use xlink:href="#SVGID_00000170990912032291472080000006069074116342648971_"  style="overflow:visible;"/>
				</clipPath>
				
					<rect x="23.1" y="39.9" style="clip-path:url(#SVGID_00000175291381310153236160000000504301147653224348_);fill:#FFFFFE;" width="110.2" height="30.5"/>
			</g>
		</g>
	</g>
	<g>
		<g>
			<g>
				<g>
					<defs>
						<path id="SVGID_00000049930796170599085210000007607650172233047739_" d="M14.5,30.8l-2.4-5.9l-2.4,5.9H14.5z M67.5,28.5
							c-0.5,0.3-1.1,0.3-1.7,0.3h-4.3v-3.3h4.3c0.6,0,1.3,0,1.7,0.3c0.5,0.2,0.7,0.7,0.7,1.3C68.2,27.8,67.9,28.3,67.5,28.5z
							 M98,30.8l-2.4-5.9l-2.4,5.9H98z M41.2,37.2h-3.6V25.7l-5.1,11.5h-3.1l-5.1-11.5v11.5h-7.1l-1.4-3.3H8.5l-1.4,3.3H3.3
							l6.3-14.7h5.2l6,13.9V22.5h5.7l4.6,10l4.2-10h5.8v14.7H41.2z M55.5,37.2H43.8V22.5h11.7v3.1h-8.2v2.6h8v3h-8v2.9h8.2V37.2z
							 M72.1,26.4c0,2.3-1.6,3.6-2.5,3.9c0.8,0.3,1.4,0.8,1.7,1.2c0.5,0.7,0.6,1.4,0.6,2.7v2.9h-3.5v-1.9c0-0.9,0.1-2.2-0.6-2.9
							c-0.5-0.5-1.3-0.6-2.6-0.6h-3.8V37h-3.5V22.5H66c1.8,0,3.1,0.1,4.3,0.7C71.4,23.8,72.1,24.8,72.1,26.4z M74.1,37.2h3.6V22.5
							h-3.6V37.2z M119.3,37.2h-5l-6.7-11v11h-7.2L99,33.9h-7.2l-1.3,3.3h-4.1c-1.7,0-3.9-0.4-5.1-1.6c-1.2-1.3-1.9-2.9-1.9-5.6
							c0-2.2,0.4-4.2,1.9-5.7c1.1-1.2,2.9-1.7,5.3-1.7H90v3.1h-3.3c-1.3,0-2,0.2-2.7,0.9c-0.6,0.6-1,1.8-1,3.3c0,1.6,0.3,2.7,1,3.5
							c0.5,0.6,1.5,0.8,2.4,0.8H88l5-11.6h5.3l5.9,13.9v-14h5.4l6.2,10.2V22.5h3.6L119.3,37.2L119.3,37.2z M3.2,40.1h6l1.4-3.3h3
							l1.3,3.3h11.9v-2.5l1.1,2.5H34l1-2.5v2.5h29.4v-5.4H65c0.4,0,0.5,0.1,0.5,0.7v4.7h15.2v-1.3c1.2,0.7,3.1,1.3,5.6,1.3h6.4
							l1.4-3.3h3l1.3,3.3h12.3V37l1.9,3.1h9.9V19.6h-9.8V22l-1.4-2.4h-10V22l-1.3-2.4H86.5c-2.3,0-4.3,0.3-5.9,1.2v-1.2h-9.3v1.2
							c-1-0.9-2.4-1.2-4-1.2H33.2l-2.3,5.3l-2.3-5.3H17.8V22l-1.2-2.4H7.4l-4.2,9.7C3.2,29.3,3.2,40.1,3.2,40.1z"/>
					</defs>
					<clipPath id="SVGID_00000165948239912493525790000015573149512585149347_">
						<use xlink:href="#SVGID_00000049930796170599085210000007607650172233047739_"  style="overflow:visible;"/>
					</clipPath>
					
						<rect x="-1.8" y="14.6" style="clip-path:url(#SVGID_00000165948239912493525790000015573149512585149347_);fill:#FFFFFE;" width="129.2" height="30.5"/>
				</g>
			</g>
		</g>
		<rect x="74.1" y="22.5" class="st3" width="3.6" height="14.7"/>
	</g>
</g>
</svg>
