<svg width="57" height="35" viewBox="0 0 57 44" fill="none" xmlns="http://www.w3.org/2000/svg">
<path d="M26.8417 15.7437H24.4453V21.0669H26.8318C28.6488 21.0669 29.6802 20.0947 29.6802 18.4053C29.6802 16.7062 28.6488 15.7437 26.8417 15.7437Z" fill="black"/>
<path d="M34.3457 24.5538C34.3457 25.3688 35.0528 25.8991 36.1626 25.8991C37.5769 25.8991 38.6375 25.0053 38.6375 23.7483V22.9922L36.3295 23.1393C35.0236 23.2277 34.3457 23.7091 34.3457 24.5538Z" fill="black"/>
<path d="M51.857 0H4.71426C2.11159 0 0 2.11159 0 4.71425V39.2855C0 41.8884 2.11159 44 4.71426 44H51.857C54.4597 44 56.5713 41.8884 56.5713 39.2855V4.71425C56.5713 2.11172 54.4597 0 51.857 0ZM13.3276 14.084C13.8481 13.4553 14.7516 13.0036 15.4785 12.9742C15.567 13.8287 15.2331 14.6732 14.7224 15.3019C14.2017 15.9107 13.3768 16.3919 12.5518 16.3232C12.4536 15.4983 12.8563 14.6241 13.3276 14.084ZM17.5213 25.7027C16.9027 26.5964 16.2839 27.4704 15.2822 27.4901C14.3197 27.5 14.0053 26.9106 12.8956 26.9106C11.7955 26.9106 11.4322 27.4608 10.519 27.5C9.55629 27.539 8.81975 26.5569 8.21075 25.6633C6.96322 23.8562 6.0106 20.5757 7.29724 18.3561C7.91608 17.2465 9.0651 16.549 10.2929 16.5293C11.2357 16.5097 12.0998 17.158 12.6794 17.158C13.2491 17.158 14.2704 16.4115 15.4688 16.4803C15.9304 16.5097 17.266 16.6472 18.1303 17.924C18.0616 17.973 16.5392 18.8571 16.559 20.6936C16.5787 22.8936 18.4839 23.6202 18.5037 23.64C18.4839 23.6991 18.1991 24.6812 17.5213 25.7027ZM27.3231 22.8151H24.4456V27.3919H22.3633V13.9956H27.3919C29.9849 13.9956 31.8017 15.7831 31.8017 18.3956C31.8017 21.0081 29.9554 22.8151 27.3231 22.8151ZM40.6313 20.7233V27.4017H38.7064V25.791H38.667C38.1168 26.842 36.909 27.5 35.6029 27.5C33.6679 27.5 32.3224 26.3508 32.3224 24.6124C32.3224 22.8938 33.6286 21.9018 36.0448 21.7545L38.6374 21.5974V20.8609C38.6374 19.7608 37.9304 19.1716 36.6537 19.1716C35.6125 19.1716 34.8467 19.7117 34.6892 20.5367H32.8133C32.8723 18.8081 34.5027 17.5412 36.7125 17.5412C39.0891 17.5412 40.641 18.7886 40.641 20.7234L40.6313 20.7233ZM47.0348 27.9124C46.2 30.2599 45.2473 31.0356 43.2143 31.0356C43.057 31.0356 42.5365 31.0258 42.4187 30.9868V29.376C42.5462 29.3856 42.8607 29.4053 43.0276 29.4053C43.9508 29.4053 44.4713 29.0126 44.7856 28.0108L44.9722 27.4215L41.4464 17.6688H43.6367L46.0821 25.5847H46.1213L48.5672 17.6688H50.6785L47.0348 27.9124Z" fill="black"/>
</svg>
