<svg width="70" height="44" viewBox="0 0 70 44" fill="none" xmlns="http://www.w3.org/2000/svg">
<path fill-rule="evenodd" clip-rule="evenodd" d="M69.9999 41.4104C69.9999 42.6988 68.9477 43.7511 67.6591 43.7511H2.34079C1.05219 43.7511 0 42.6988 0 41.4104V2.34093C0 1.05234 1.05219 0 2.34079 0H67.6592C68.9478 0 70 1.05234 70 2.34093V41.4104H69.9999Z" fill="#14477C"/>
<path fill-rule="evenodd" clip-rule="evenodd" d="M43.3961 34.4273L44.0404 34.4148L44.6856 34.3753L45.3163 34.2827L45.9345 34.1775L46.5394 34.0329L47.1442 33.8757L47.7227 33.6646L48.3016 33.4418L48.8533 33.191L49.3924 32.9152L49.919 32.6123L50.4321 32.2843L50.9317 31.9294L51.4052 31.561L51.8519 31.1665L52.2983 30.745L52.7065 30.311L53.1018 29.8509L53.4826 29.3773L53.8376 28.8913L54.1532 28.3781L54.4693 27.8526L54.7318 27.3134L54.9951 26.7482L55.2188 26.182L55.4164 25.5908L55.5873 24.9986L55.7311 24.394L55.8371 23.7622L55.9161 23.1447L55.9681 22.4996L55.9809 21.8561L55.9681 21.211L55.9161 20.5667L55.8371 19.9485L55.7311 19.3313L55.5873 18.7255L55.4164 18.1345L55.2188 17.5421L54.9951 16.977L54.7318 16.4243L54.4693 15.8853L54.1532 15.3594L53.8376 14.8465L53.4826 14.3603L53.1018 13.8867L52.7065 13.4266L52.2983 12.9926L51.8519 12.5847L51.4052 12.1902L50.9317 11.8093L50.4321 11.4669L49.919 11.1379L49.3924 10.836L48.8533 10.5592L48.3016 10.3094L47.7227 10.0866L47.1442 9.88899L46.5394 9.71821L45.9345 9.57354L45.3163 9.4684L44.6856 9.38936L44.0404 9.33642L43.3961 9.32373L42.7518 9.33642L42.1211 9.38936L41.4894 9.4684L40.872 9.57354L40.2664 9.71821L39.6618 9.88899L39.0824 10.0866L38.5172 10.3094L37.9647 10.5592L37.4255 10.836L36.8999 11.1379L36.3868 11.4669L35.9007 11.8093L35.4261 12.1902L34.9662 12.5847L34.5331 12.9926L34.1114 13.4266L33.7307 13.8867L33.3487 14.3603L33.0072 14.8465L32.6783 15.3594L32.3765 15.8853L32.0997 16.4243L31.8498 16.977L31.626 17.5421L31.4294 18.1345L31.2586 18.7255L31.1131 19.3313L31.0088 19.9485L30.9296 20.5667L30.8767 21.211L30.8633 21.8561L30.8767 22.4996L30.9296 23.1447L31.0088 23.7622L31.1131 24.394L31.2586 24.9986L31.4294 25.5908L31.626 26.182L31.8498 26.7482L32.0997 27.3134L32.3765 27.8526L32.6783 28.3781L33.0072 28.8913L33.3487 29.3773L33.7307 29.8509L34.1114 30.311L34.5331 30.745L34.9662 31.1665L35.4261 31.561L35.9007 31.9294L36.3868 32.2843L36.8999 32.6123L37.4255 32.9152L37.9647 33.191L38.5172 33.4418L39.0824 33.6646L39.6618 33.8757L40.2664 34.0329L40.872 34.1775L41.4894 34.2827L42.1211 34.3753L42.7518 34.4148L43.3961 34.4273Z" fill="#FBB230"/>
<path fill-rule="evenodd" clip-rule="evenodd" d="M26.6032 34.4273L27.2475 34.4148L27.8782 34.3753L28.51 34.2827L29.1273 34.1775L29.7329 34.0329L30.3384 33.8757L30.9164 33.6646L31.4815 33.4418L32.0343 33.191L32.5732 32.9152L33.0991 32.6123L33.612 32.2843L34.0982 31.9294L34.5727 31.561L35.0328 31.1665L35.4658 30.745L35.8874 30.311L36.2692 29.8509L36.6503 29.3773L36.9917 28.8913L37.3205 28.3781L37.6224 27.8526L37.8993 27.3134L38.1492 26.7482L38.3729 26.182L38.5696 25.5908L38.7411 24.9986L38.8859 24.394L38.9902 23.7622L39.0691 23.1447L39.1223 22.4996L39.1356 21.8561L39.1223 21.211L39.0691 20.5667L38.9902 19.9485L38.8859 19.3313L38.7411 18.7255L38.5696 18.1345L38.3729 17.5421L38.1492 16.977L37.8993 16.4243L37.6224 15.8853L37.3205 15.3594L36.9917 14.8465L36.6503 14.3603L36.2692 13.8867L35.8874 13.4266L35.4658 12.9926L35.0328 12.5847L34.5727 12.1902L34.0982 11.8093L33.612 11.4669L33.0991 11.1379L32.5732 10.836L32.0343 10.5592L31.4815 10.3094L30.9164 10.0866L30.3384 9.88899L29.7329 9.71821L29.1273 9.57354L28.51 9.4684L27.8782 9.38936L27.2475 9.33642L26.6032 9.32373L25.9589 9.33642L25.3137 9.38936L24.6828 9.4684L24.0648 9.57354L23.4609 9.71821L22.8552 9.88899L22.2766 10.0866L21.6977 10.3094L21.1461 10.5592L20.6071 10.836L20.0803 11.1379L19.5683 11.4669L19.0685 11.8093L18.5943 12.1902L18.1476 12.5847L17.7009 12.9926L17.293 13.4266L16.8975 13.8867L16.5167 14.3603L16.1617 14.8465L15.8462 15.3594L15.53 15.8853L15.2675 16.4243L15.0042 16.977L14.7805 17.5421L14.5838 18.1345L14.412 18.7255L14.2811 19.3313L14.1622 19.9485L14.0842 20.5667L14.0311 21.211L14.0186 21.8561L14.0311 22.4996L14.0842 23.1447L14.1622 23.7622L14.2811 24.394L14.412 24.9986L14.5838 25.5908L14.7805 26.182L15.0042 26.7482L15.2675 27.3134L15.53 27.8526L15.8462 28.3781L16.1617 28.8913L16.5167 29.3773L16.8975 29.8509L17.293 30.311L17.7009 30.745L18.1476 31.1665L18.5943 31.561L19.0685 31.9294L19.5683 32.2843L20.0803 32.6123L20.6071 32.9152L21.1461 33.191L21.6977 33.4418L22.2766 33.6646L22.8552 33.8757L23.4609 34.0329L24.0648 34.1775L24.6828 34.2827L25.3137 34.3753L25.9589 34.4148L26.6032 34.4273Z" fill="#EB2230"/>
<path fill-rule="evenodd" clip-rule="evenodd" d="M33.5332 14.1366H40.2012V13.4526H34.1117L33.5332 14.1366Z" fill="#FBB230"/>
<path fill-rule="evenodd" clip-rule="evenodd" d="M32.5342 15.6488H40.2014V14.9648H32.9287L32.5342 15.6488Z" fill="#FBB230"/>
<path fill-rule="evenodd" clip-rule="evenodd" d="M31.7842 17.1613H40.2009V16.4773H32.0869L31.7842 17.1613Z" fill="#FBB230"/>
<path fill-rule="evenodd" clip-rule="evenodd" d="M31.2715 18.6736H40.2012V18.0032H31.4816L31.2715 18.6736Z" fill="#FBB230"/>
<path fill-rule="evenodd" clip-rule="evenodd" d="M31.5737 26.0113H40.2275V25.3276H31.3643L31.5737 26.0113Z" fill="#FBB230"/>
<path fill-rule="evenodd" clip-rule="evenodd" d="M32.2051 27.5237H40.2271V26.8398H31.8896L32.2051 27.5237Z" fill="#FBB230"/>
<path fill-rule="evenodd" clip-rule="evenodd" d="M33.1127 29.0361H40.2272V28.3523H32.6787L33.1127 29.0361Z" fill="#FBB230"/>
<path fill-rule="evenodd" clip-rule="evenodd" d="M34.3488 30.5482H40.2269V29.8643H33.7441L34.3488 30.5482Z" fill="#FBB230"/>
<path fill-rule="evenodd" clip-rule="evenodd" d="M30.9697 20.1858H40.2015V19.5146H31.1011L30.9697 20.1858Z" fill="#FBB230"/>
<path fill-rule="evenodd" clip-rule="evenodd" d="M36.5977 24.499H40.1223V23.8152H36.7296L36.5977 24.499Z" fill="#FBB230"/>
<path fill-rule="evenodd" clip-rule="evenodd" d="M36.873 22.9868H40.1218V22.303H37.0052L36.873 22.9868Z" fill="#FBB230"/>
<path fill-rule="evenodd" clip-rule="evenodd" d="M30.7324 22.303H31.6528V22.9868H30.7857L30.7324 22.303Z" fill="#FBB230"/>
<path fill-rule="evenodd" clip-rule="evenodd" d="M54.7719 28.9309C55.1009 28.9309 55.3641 29.2068 55.3641 29.5221C55.3641 29.8511 55.1009 30.1144 54.7719 30.1144C54.443 30.1144 54.1807 29.8511 54.1807 29.5221C54.1807 29.2068 54.443 28.9309 54.7719 28.9309ZM54.7719 29.0361C55.0487 29.0361 55.2715 29.2598 55.2715 29.5221C55.2715 29.7989 55.0488 30.0226 54.7719 30.0226C54.5095 30.0226 54.2848 29.7991 54.2848 29.5221C54.2848 29.2598 54.5095 29.0361 54.7719 29.0361Z" fill="#FBB230"/>
<path d="M54.5488 29.7853V29.2856H54.759C54.811 29.2856 54.8507 29.2856 54.8775 29.2992C54.9028 29.3117 54.9171 29.3252 54.9296 29.3379C54.9423 29.3648 54.9557 29.3909 54.9557 29.4169C54.9557 29.4564 54.9423 29.4959 54.9296 29.5095C54.9026 29.5356 54.864 29.549 54.8234 29.5616C54.8506 29.5751 54.8638 29.5885 54.8774 29.6011C54.8899 29.6145 54.9169 29.6406 54.9295 29.6801L54.9951 29.7853H54.8772L54.7973 29.6667C54.7836 29.6272 54.7585 29.6146 54.7453 29.6012C54.7453 29.5885 54.7317 29.5885 54.719 29.5751C54.7056 29.5751 54.6922 29.5751 54.6661 29.5751H54.6527V29.7853H54.5488ZM54.6531 29.4959H54.7195C54.7715 29.4959 54.7978 29.4959 54.8112 29.4834C54.8237 29.4834 54.8383 29.4834 54.8383 29.4698C54.8508 29.4564 54.8508 29.4439 54.8508 29.4303C54.8508 29.4167 54.8508 29.4042 54.8383 29.3908C54.8237 29.3771 54.8112 29.3771 54.7979 29.3645C54.7979 29.3645 54.7717 29.3645 54.7323 29.3645H54.6532V29.4959H54.6531Z" fill="#FBB230"/>
<path fill-rule="evenodd" clip-rule="evenodd" d="M54.64 23.9861C54.9689 23.9861 55.2314 24.2493 55.2314 24.5783C55.2314 24.9072 54.9689 25.1695 54.64 25.1695C54.3112 25.1695 54.0488 24.9072 54.0488 24.5783C54.0488 24.2492 54.3112 23.9861 54.64 23.9861ZM54.64 24.0911C54.9168 24.0911 55.1398 24.3147 55.1398 24.5782C55.1398 24.8539 54.917 25.0778 54.64 25.0778C54.3634 25.0778 54.1404 24.8539 54.1404 24.5782C54.1404 24.3148 54.3632 24.0911 54.64 24.0911Z" fill="white"/>
<path d="M54.417 24.8279V24.3408H54.6273C54.6801 24.3408 54.7197 24.3408 54.7458 24.3542C54.7593 24.3542 54.7843 24.3805 54.7979 24.3938C54.8113 24.4199 54.8239 24.4458 54.8239 24.4729C54.8239 24.5125 54.8113 24.5384 54.7843 24.5644C54.7718 24.5906 54.7324 24.6039 54.6929 24.6175C54.7063 24.63 54.7324 24.6436 54.7458 24.657C54.7593 24.6695 54.7718 24.6958 54.7979 24.7353L54.8643 24.8279H54.7457L54.6665 24.7226C54.6404 24.6831 54.627 24.657 54.6136 24.657C54.601 24.6436 54.601 24.63 54.5883 24.63C54.5739 24.63 54.5614 24.63 54.5354 24.63H54.5093V24.8278H54.417V24.8279ZM54.5095 24.552H54.5885C54.6406 24.552 54.6667 24.552 54.6801 24.5386C54.6929 24.5386 54.7063 24.525 54.7063 24.525C54.7197 24.5125 54.7197 24.4989 54.7197 24.4855C54.7197 24.4729 54.7063 24.446 54.7063 24.446C54.6929 24.4334 54.6801 24.4199 54.6668 24.4199C54.6535 24.4199 54.6273 24.4199 54.5886 24.4199H54.5096V24.552H54.5095Z" fill="white"/>
<path fill-rule="evenodd" clip-rule="evenodd" d="M46.1846 24.9196L47.039 20.4492H48.104L48.236 20.9092C48.4329 20.7116 48.7616 20.4492 49.4193 20.4492L49.0906 21.6327C48.8013 21.6327 48.3537 21.5797 47.9863 22.4476C47.7103 23.1054 47.5783 24.1963 47.4335 24.9196H46.1846Z" fill="white"/>
<path fill-rule="evenodd" clip-rule="evenodd" d="M30.0619 19.3313H31.2443L30.9818 20.5146H31.6397L31.4421 21.435H30.8507L30.5219 23.2105C30.4564 23.5393 30.5219 23.8683 31.1796 23.7361L31.0485 24.7228C30.3385 25.2619 28.9171 24.8675 29.1408 23.5393L30.0619 19.3313Z" fill="white"/>
<path fill-rule="evenodd" clip-rule="evenodd" d="M35.3352 22.9472C35.4664 22.224 35.7954 20.4492 33.6783 20.4492C31.7061 20.4492 31.4427 22.4216 31.4427 22.684C31.3779 22.9472 31.3779 24.9196 33.4815 24.9196C34.007 24.9196 34.7439 24.854 35.0728 24.7227L35.2697 23.8018C35.0728 23.8683 34.4017 23.9338 33.8759 23.9338C33.416 23.9338 32.627 23.9338 32.7581 22.9471H35.3352V22.9472Z" fill="white"/>
<path fill-rule="evenodd" clip-rule="evenodd" d="M20.9886 24.9196L22.0408 19.5281H19.9893L18.5425 22.8159L18.2793 19.5281H16.3727L15.3203 24.9196H16.5038L17.2936 21.0404L17.6225 24.9196H18.7403L20.4494 21.106L19.726 24.9196H20.9886Z" fill="white"/>
<path fill-rule="evenodd" clip-rule="evenodd" d="M22.3681 20.5802L22.1712 21.5669C22.5001 21.5669 23.2889 21.4349 23.6834 21.4349C24.0779 21.4349 24.6037 21.3695 24.4069 22.0272C24.0779 22.0272 21.9077 21.6982 21.5788 23.605C21.3955 24.8674 22.8944 25.3277 23.8145 24.7228L23.9465 24.9853H25.0636L25.5244 22.5526C26.0107 20.3565 23.8938 20.317 22.3681 20.5802Z" fill="white"/>
<path fill-rule="evenodd" clip-rule="evenodd" d="M41.951 20.9748C41.6483 20.7905 41.4639 20.7905 41.083 20.7905C40.7147 20.7905 39.8465 21.1588 39.7279 22.1447C39.5436 23.3812 40.3461 23.9338 41.5162 23.5654L41.8325 24.6176C39.834 25.6168 37.9259 24.0649 38.5576 21.645C39.0698 19.8173 41.4901 18.713 42.7005 20.2252L41.951 20.9748Z" fill="white"/>
<path fill-rule="evenodd" clip-rule="evenodd" d="M52.3787 20.9748C49.1564 18.5548 47.9066 24.9196 50.4054 24.9196C50.7999 24.9196 51.1953 24.7227 51.4578 24.5908L51.5889 24.9196H52.9045L53.9568 19.2649H52.707L52.3787 20.9748Z" fill="white"/>
<path fill-rule="evenodd" clip-rule="evenodd" d="M42.8967 20.5802L42.6998 21.5669C43.0276 21.5669 43.8176 21.4349 44.2112 21.4349C44.6067 21.4349 45.0667 21.3695 44.9355 22.0272C44.6067 22.0272 42.4366 21.6982 42.1086 23.605C41.9755 24.5252 42.7654 24.9853 43.3575 24.9853C43.9487 24.9853 44.1463 24.854 44.3432 24.7228L44.4745 24.9853H45.5932L46.0531 22.5526C46.5532 20.3565 44.4351 20.317 42.8967 20.5802Z" fill="white"/>
<path fill-rule="evenodd" clip-rule="evenodd" d="M32.7578 22.0926H34.2701C34.4409 20.8958 33.0076 21.1329 32.7578 22.0926Z" fill="#EB2230"/>
<path fill-rule="evenodd" clip-rule="evenodd" d="M24.2109 22.9472C24.0133 22.9472 23.5532 22.8161 23.1577 23.0793C22.7642 23.3417 22.6321 23.8018 23.093 23.9338C23.4866 24.0649 24.0133 23.8018 24.1443 23.4073L24.2109 22.9472Z" fill="#EB2230"/>
<path fill-rule="evenodd" clip-rule="evenodd" d="M51.7862 21.6981C51.3917 21.1715 50.5373 21.567 50.2739 22.5525C50.0772 23.2104 50.4717 23.6705 50.8661 23.6705C51.6946 23.6706 52.1943 22.3164 51.7862 21.6981Z" fill="#FBB230"/>
<path fill-rule="evenodd" clip-rule="evenodd" d="M44.8036 22.9472C44.607 22.9472 44.1468 22.8161 43.7514 23.0793C43.358 23.3417 43.2258 23.8018 43.6868 23.9338C44.0804 24.0649 44.6727 23.8018 44.7382 23.4073L44.8036 22.9472Z" fill="#FBB230"/>
<path fill-rule="evenodd" clip-rule="evenodd" d="M35.335 24.9852L35.4016 24.5251L36.1904 20.5146H37.2419L37.373 20.9748C37.5706 20.7771 37.8996 20.5146 38.5573 20.5146L38.2283 21.6981C37.9785 21.6981 37.452 21.6452 37.0576 22.6974C36.8338 23.3021 36.7026 24.3284 36.584 24.9852H35.335Z" fill="white"/>
<path fill-rule="evenodd" clip-rule="evenodd" d="M28.9706 21.5931H28.9175H28.8655L28.8135 21.5797L28.7605 21.567H28.7075L28.6553 21.5534C28.4182 21.5275 28.2213 21.5139 27.9851 21.5275C27.3794 21.5795 27.1171 21.9604 27.6294 22.2498C28.0373 22.4871 28.3534 22.4474 28.6285 22.7108C29.2209 23.2626 28.9178 24.3282 28.2601 24.7354L28.1424 24.7883L28.0112 24.8413L27.8666 24.8799L27.7355 24.9194C27.1038 25.0246 26.2493 24.9985 25.6309 24.7883L25.8018 23.9068C26.3014 24.0119 27.1173 24.2356 27.4983 23.9732C27.9324 23.6839 27.5378 23.3415 27.2215 23.197L27.0643 23.1448L26.9071 23.0793C25.6573 22.513 25.9475 21.0007 27.1299 20.6854C27.6034 20.5803 28.0771 20.5803 28.564 20.6198H28.6556C28.7743 20.6325 28.8795 20.646 28.9846 20.672H29.0367L29.0762 20.6854H29.1157L29.1417 20.6988H29.1812L28.9706 21.5931Z" fill="white"/>
</svg>
