<svg width="70" height="44" viewBox="0 0 70 44" fill="none" xmlns="http://www.w3.org/2000/svg">
<mask id="mask0_1120_335" style="mask-type:luminance" maskUnits="userSpaceOnUse" x="0" y="0" width="70" height="44">
<path d="M0 3.28125C0 1.47656 1.47656 0 3.28125 0H66.7188C68.5234 0 70 1.47656 70 3.28125V40.4688C70 42.2734 68.5234 43.75 66.7188 43.75H3.28125C1.47656 43.75 0 42.2734 0 40.4688C0 40.4688 0 3.28125 0 3.28125Z" fill="white"/>
</mask>
<g mask="url(#mask0_1120_335)">
<path d="M0 3.28125C0 1.47656 1.47656 0 3.28125 0H66.7188C68.5234 0 70 1.47656 70 3.28125V40.4688C70 42.2734 68.5234 43.75 66.7188 43.75H3.28125C1.47656 43.75 0 42.2734 0 40.4688V3.28125Z" fill="#1E4BC6"/>
</g>
<path d="M44.299 26.1416V17.1649H45.6719V17.8244C45.8633 17.4946 46.2281 17.2748 46.5236 17.1649C46.8191 17.055 47.1145 17.0183 47.4274 17.0183C48.192 17.0183 48.9917 17.2931 49.6522 18.0076C50.2605 18.6671 50.5734 19.4915 50.5734 20.4441C50.5734 20.8838 50.4865 21.3235 50.3302 21.7265C50.1738 22.1481 49.9479 22.5145 49.6696 22.8257C49.3743 23.1557 49.0266 23.4121 48.6615 23.5768C48.2791 23.7417 47.9315 23.8333 47.4795 23.8333C47.1493 23.8333 46.8191 23.7785 46.5236 23.6684C46.2281 23.5585 45.8109 23.3207 45.6545 23.0459V26.1603H44.2988L44.299 26.1416ZM47.3754 18.2826C46.8714 18.2826 46.4369 18.4475 46.0892 18.8322C45.7242 19.2352 45.5852 19.8031 45.5852 20.3894C45.5852 20.9937 45.7244 21.5985 46.072 22.0013C46.437 22.4045 46.8715 22.5509 47.393 22.5509C47.9144 22.5509 48.349 22.3313 48.6618 21.983C49.027 21.5802 49.2008 21.0487 49.2008 20.4625C49.2008 19.8213 49.027 19.2717 48.6618 18.8686C48.3488 18.5022 47.8969 18.2826 47.3754 18.2826ZM58.482 17.1649H59.9247L61.8019 21.7817L63.5574 17.1649H65L61.4021 26.1416H59.9768L61.124 23.302L58.482 17.1649ZM56.292 23.7053V23.0272C56.1356 23.302 55.7184 23.5585 55.4229 23.6501C55.1101 23.76 54.797 23.815 54.467 23.815C54.0149 23.815 53.6673 23.7234 53.285 23.5585C52.9199 23.3936 52.5723 23.1373 52.2768 22.8074C51.9987 22.4961 51.7729 22.1297 51.6163 21.7082C51.46 21.2867 51.3731 20.8655 51.3731 20.4258C51.3731 19.4732 51.686 18.6488 52.2943 17.9893C52.9548 17.2748 53.7717 17 54.5191 17C54.832 17 55.1275 17.055 55.4229 17.1466C55.7184 17.2565 56.0834 17.4763 56.2745 17.8061V17.1466H57.6476V23.6869H56.2918L56.292 23.7053ZM53.285 18.8503C52.9199 19.2533 52.7461 19.8213 52.7461 20.4441C52.7461 21.0306 52.9199 21.5615 53.285 21.9647C53.6151 22.3128 54.0324 22.5326 54.5539 22.5326C55.0753 22.5326 55.5098 22.3859 55.8749 21.983C56.24 21.5802 56.3615 20.9937 56.3615 20.3709C56.3615 19.8029 56.2225 19.2167 55.8577 18.8137C55.4925 18.429 55.0579 18.2641 54.5714 18.2641C54.0324 18.2826 53.5979 18.5022 53.285 18.8503ZM36.6686 18.0809V23.5585H34.7914L33.5052 19.0518H33.4705L33.54 23.5585H32.2538V18.0809H34.2005L35.4171 22.4229H35.4345L35.365 18.0809H36.6686ZM9.65817 23.6137L10.6315 18.0809H12.9606L13.934 23.6137H12.5261L11.8134 18.5755H11.7961L11.066 23.6137H9.65817ZM20.7126 18.0809L20.8343 23.6137H19.5133L19.4786 18.6305H19.4438L18.5747 23.6137H17.2364L16.3673 18.6305H16.3326L16.2978 23.6137H14.9768L15.0985 18.0809H17.2538L17.8969 22.3129H17.9143L18.5747 18.0809H20.7126ZM28.934 22.7709C29.2991 22.7709 29.4206 22.5145 29.438 22.3677C29.4554 22.3129 29.4554 22.2213 29.4554 22.1481V18.0811H30.7937V22.0565C30.7937 22.1664 30.7764 22.3677 30.7764 22.4229C30.6895 23.4488 29.9073 23.7969 28.9338 23.7969C27.9604 23.7969 27.1957 23.4669 27.1087 22.4229C27.1087 22.3677 27.0914 22.1664 27.0914 22.0565V18.0811H28.4297V22.1845C28.4297 22.2578 28.4297 22.3313 28.4471 22.4045C28.4647 22.5145 28.5689 22.7709 28.934 22.7709ZM7.43337 22.0381C7.48552 22.1662 7.46813 22.3494 7.45075 22.441C7.39861 22.6242 7.29432 22.8074 6.92931 22.8074C6.59907 22.8074 6.40788 22.6059 6.40788 22.3129V21.7817H5V22.2028C5 23.4488 5.92121 23.8152 6.91194 23.8152C7.8679 23.8152 8.65006 23.4671 8.77173 22.5511C8.84125 22.0748 8.78911 21.7635 8.77173 21.6351C8.54577 20.4811 6.54693 20.1329 6.40788 19.4735C6.3905 19.3636 6.3905 19.2537 6.40788 19.1804C6.44264 18.9972 6.56431 18.814 6.89455 18.814C7.20741 18.814 7.38123 19.0156 7.38123 19.3087V19.6567H8.68482V19.272C8.68482 18.0629 7.65933 17.8797 6.91194 17.8797C5.97335 17.8797 5.20857 18.2095 5.06952 19.1072C5.03476 19.3453 5.03476 19.5651 5.08691 19.8583C5.29548 21.0121 7.17265 21.3237 7.43337 22.0381ZM24.5191 22.0381C24.5713 22.1662 24.5539 22.3313 24.5365 22.441C24.5017 22.6242 24.3801 22.8074 24.0324 22.8074C23.7022 22.8074 23.511 22.6059 23.511 22.3129V21.7817H22.1205V22.2028C22.1205 23.4305 23.0417 23.7969 24.0151 23.7969C24.9536 23.7969 25.7358 23.4669 25.8575 22.5509C25.927 22.0746 25.875 21.7634 25.8575 21.6532C25.6315 20.4993 23.6674 20.1695 23.5286 19.5283C23.4938 19.4184 23.5112 19.3085 23.5286 19.2352C23.5633 19.052 23.685 18.8688 23.9979 18.8688C24.3107 18.8688 24.4845 19.0703 24.4845 19.3634V19.7115H25.7881V19.3268C25.7881 18.136 24.7626 17.9528 24.0326 17.9528C23.1114 17.9528 22.3466 18.2643 22.2076 19.1619C22.1728 19.4001 22.1554 19.6199 22.225 19.8947C22.416 21.0121 24.2584 21.3237 24.5191 22.0381ZM39.9015 22.7158C40.2837 22.7158 40.4054 22.4593 40.4403 22.3129C40.4577 22.2578 40.4577 22.1662 40.4577 22.1111V21.3054H39.9189V20.4991H41.7787V21.983C41.7787 22.0929 41.7787 22.1662 41.7611 22.3494C41.6742 23.357 40.8399 23.7234 39.9015 23.7234C38.9801 23.7234 38.1458 23.357 38.0589 22.3494C38.0415 22.1662 38.0415 22.0929 38.0415 21.983V19.6564C38.0415 19.5648 38.0589 19.3816 38.0589 19.29C38.1806 18.2458 38.9627 17.916 39.9015 17.916C40.8399 17.916 41.657 18.2458 41.7439 19.29C41.7613 19.4549 41.7613 19.6564 41.7613 19.6564V19.8396H40.4403V19.5281C40.4403 19.5281 40.4403 19.3999 40.4229 19.3083C40.4054 19.1801 40.3013 18.9053 39.9015 18.9053C39.5191 18.9053 39.4147 19.1801 39.3801 19.3083C39.3625 19.3816 39.3625 19.4732 39.3625 19.5648V22.0927C39.3625 22.166 39.3625 22.2395 39.3801 22.2943C39.3801 22.4776 39.5191 22.7158 39.9015 22.7158Z" fill="white"/>
</svg>
