<svg width="70" height="43" viewBox="0 0 70 43" fill="none" xmlns="http://www.w3.org/2000/svg">
<path fill-rule="evenodd" clip-rule="evenodd" d="M2.99799 0C1.75854 0 0.979907 0.201685 0.547607 0.634393C0.172757 1.12455 0 1.9317 0 3.1137V11.1571H70V3.1137C70 1.00924 68.9614 0 66.8859 0H2.99799Z" fill="#315881"/>
<path fill-rule="evenodd" clip-rule="evenodd" d="M0 38.8634C0 40.9959 1.00884 42.092 2.99799 42.092H66.8859C68.9614 42.092 70 40.9964 70 38.8634V30.8196H0V38.8634Z" fill="#DFA43B"/>
<path fill-rule="evenodd" clip-rule="evenodd" d="M23.1798 14.5881C23.1798 14.963 23.1219 15.251 22.9781 15.4531L17.9327 24.2466L17.6153 13.5214H9.54297L12.2529 14.8187C13.0311 15.3089 13.4349 15.9429 13.4349 16.7504L14.1842 28.139H18.134L27.5908 13.5214H22.7475C23.0355 13.781 23.1798 14.1843 23.1798 14.5881ZM55.8162 13.9537L56.1328 13.521H51.2027C51.3754 13.6938 51.4333 13.7806 51.4333 13.838C51.375 14.0682 51.2597 14.2129 51.2027 14.3856L44.0239 27.4744C43.8511 27.705 43.6776 27.9071 43.4763 28.1381H47.5414L47.3393 27.7054C47.3393 27.3306 47.5414 26.6391 47.9737 25.6588L48.8387 24.0441H53.0191C53.1926 25.3993 53.3079 26.5238 53.3654 27.3603L53.0191 28.1385H58.0645L57.3148 27.0429L55.8162 13.9537ZM52.8174 21.9975H49.819L52.3847 17.0674L52.8174 21.9975ZM40.3626 12.7717C38.8061 12.7717 37.4795 13.2044 36.2975 14.069C34.9998 14.8187 34.3658 15.7701 34.3658 16.9525C34.3658 18.3077 34.827 19.4897 35.7495 20.3832L38.5466 22.3145C39.5558 23.0357 40.046 23.6697 40.046 24.2466C40.046 24.7942 39.7856 25.2844 39.2963 25.6592C38.8061 26.0341 38.2577 26.2068 37.5663 26.2068C36.557 26.2068 34.8274 25.4865 32.4345 24.1602V26.8412C34.3083 27.9658 36.1251 28.5427 37.8833 28.5427C39.5558 28.5427 40.9684 28.0811 42.1798 27.0433C43.4771 26.0915 44.1111 24.9678 44.1111 23.7279C44.1111 22.6894 43.6494 21.7384 42.6117 20.7291L39.9299 18.7974C39.0372 18.0767 38.5466 17.4423 38.5466 16.9525C38.5466 15.8284 39.2095 15.2514 40.5647 15.2514C41.4871 15.2514 42.8423 15.7705 44.6583 16.8662L45.2067 14.0694C43.678 13.204 42.0926 12.7717 40.3626 12.7717ZM29.6378 28.1385C29.5799 27.5331 29.4646 26.9855 29.4068 26.4085L33.0685 14.5881L33.9335 13.5214H28.6575C28.7153 13.781 28.7728 14.1269 28.8306 14.3864C28.8306 14.646 28.8306 14.9634 28.7728 15.2514L25.1115 26.9565L24.3618 28.139L29.6378 28.1385Z" fill="#315881"/>
</svg>
